:FULLY-SPECIFIED
:FORCE-ALL-JOINTS-BE-3DOF
:DEGREES
1835
root 6.36116 13.9641 27.821 -26.0237 61.3595 -25.4776
lfemur -48.1603 17.2185 1.76637
ltibia 53.4818 0 0
lfoot 5.48342 -2.97121 0.231823
ltoes -8.29673 0 0
rfemur -0.562225 -10.2354 18.979
rtibia 53.171 0 0
rfoot -28.3196 -27.1337 -0.0368246
rtoes -23.7213 0 0
lowerback 14.1075 3.20223 6.30213
upperback -0.24868 5.69766 3.78035
thorax -8.00374 2.6233 -0.683858
lowerneck -5.05558 7.15985 0.529019
upperneck 7.84623 9.52391 0.78382
head 3.6528 4.78561 0.594879
lclavicle -2.40312e-14 -7.77633e-15 -2.39771e-30
lhumerus 53.9305 11.9235 102.732
lradius 14.8924 0 0
lwrist -72.0294 0 0
lhand -34.7374 43.1302 -0.185188
lfingers 7.12502 0 0
lthumb -7.89003 72.8885 -0.176359
rclavicle -2.40312e-14 -7.77633e-15 -2.39771e-30
rhumerus -62.6979 9.32298 -78.5228
rradius 118.367 0 0
rwrist -11.2612 180 180
rhand -73.8007 -144.878 0.978497
rfingers 7.12502 0 0
rthumb -38.7827 -127.261 4.27471
1836
root 6.43034 13.951 27.8257 -25.7214 61.0231 -25.4223
lfemur -48.5197 17.9603 1.80072
ltibia 54.7087 0 0
lfoot 4.53333 -3.23389 0.247838
ltoes -9.48439 0 0
rfemur -0.330958 -10.0046 18.8806
rtibia 52.775 0 0
rfoot -28.0669 -27.3344 -0.037493
rtoes -24.0705 0 0
lowerback 14.1051 3.33034 6.27973
upperback -0.27902 5.87209 3.83845
thorax -8.03621 2.7088 -0.644791
lowerneck -4.91303 7.42821 0.75948
upperneck 7.77709 9.88632 0.545601
head 3.64245 4.96307 0.489651
lclavicle -2.48846e-14 -1.03599e-14 -2.44343e-30
lhumerus 53.8598 12.0868 102.945
lradius 15.0231 0 0
lwrist -72.5905 0 0
lhand -34.4119 42.92 -0.188841
lfingers 7.12502 0 0
lthumb -7.57588 72.6885 -0.179855
rclavicle -2.48846e-14 -1.03599e-14 -2.44343e-30
rhumerus -62.9895 9.5806 -78.6946
rradius 118.469 0 0
rwrist -12.8311 180 180
rhand -73.2406 -140.57 1.26946
rfingers 7.12502 0 0
rthumb -37.8857 -124.366 4.36008
1837
root 6.49953 13.9378 27.8304 -25.3712 60.616 -25.3399
lfemur -48.9276 18.7739 1.83488
ltibia 56.0125 0 0
lfoot 3.51863 -3.5406 0.262808
ltoes -10.7515 0 0
rfemur -0.0520383 -9.72279 18.7737
rtibia 52.3425 0 0
rfoot -27.8087 -27.556 -0.0378017
rtoes -24.4653 0 0
lowerback 14.1018 3.46592 6.26344
upperback -0.310757 6.05843 3.90476
thorax -8.06956 2.79999 -0.602571
lowerneck -4.75779 7.73455 1.02174
upperneck 7.7023 10.3006 0.272705
head 3.63131 5.16577 0.370357
lclavicle -2.57575e-14 -1.3163e-14 -2.45627e-30
lhumerus 53.9257 12.2902 103.215
lradius 15.0652 0 0
lwrist -73.2972 0 0
lhand -34.0825 42.7072 -0.189055
lfingers 7.12502 0 0
lthumb -7.25814 72.4869 -0.180058
rclavicle -2.57575e-14 -1.3163e-14 -2.45627e-30
rhumerus -63.3991 9.83902 -78.9189
rradius 118.666 0 0
rwrist -14.7347 180 180
rhand -72.5338 -135.651 1.61808
rfingers 7.12502 0 0
rthumb -36.9704 -121.293 4.37098
1838
root 6.56872 13.9247 27.835 -24.9727 60.133 -25.2311
lfemur -49.3875 19.6627 1.86722
ltibia 57.3953 0 0
lfoot 2.43716 -3.89431 0.275273
ltoes -12.1006 0 0
rfemur 0.277857 -9.38599 18.6586
rtibia 51.8717 0 0
rfoot -27.5455 -27.7995 -0.0376252
rtoes -24.9088 0 0
lowerback 14.0976 3.60914 6.25388
upperback -0.343857 6.25708 3.97981
thorax -8.10374 2.89706 -0.55707
lowerneck -4.58886 8.08098 1.31794
upperneck 7.62094 10.77 -0.0372876
head 3.61921 5.3955 0.235995
lclavicle -2.66484e-14 -1.61952e-14 -2.43029e-30
lhumerus 54.1415 12.5358 103.549
lradius 15.0098 0 0
lwrist -74.1601 0 0
lhand -33.7502 42.4923 -0.185583
lfingers 7.12502 0 0
lthumb -6.93741 72.2843 -0.176739
rclavicle -2.66484e-14 -1.61952e-14 -2.43029e-30
rhumerus -63.9363 10.096 -79.2002
rradius 118.968 0 0
rwrist -16.9955 180 180
rhand -71.6567 -130.081 2.00219
rfingers 7.12502 0 0
rthumb -36.0441 -118.04 4.29931
1839
root 6.63791 13.9115 27.8397 -24.5262 59.5689 -25.0972
lfemur -49.9031 20.6305 1.89572
ltibia 58.8593 0 0
lfoot 1.28676 -4.2979 0.283474
ltoes -13.5344 0 0
rfemur 0.661627 -8.99041 18.5358
rtibia 51.3609 0 0
rfoot -27.2778 -28.0659 -0.0368267
rtoes -25.4035 0 0
lowerback 14.0923 3.76018 6.25168
upperback -0.378275 6.46845 4.06408
thorax -8.13869 3.00017 -0.508156
lowerneck -4.40508 8.46966 1.65036
upperneck 7.53193 11.2975 -0.38688
head 3.60596 5.65373 0.0857389
lclavicle -2.75558e-14 -1.94664e-14 -2.35919e-30
lhumerus 54.5204 12.8246 103.95
lradius 14.8489 0 0
lwrist -75.19 0 0
lhand -33.4158 42.2759 -0.178194
lfingers 7.12502 0 0
lthumb -6.61466 72.0813 -0.169679
rclavicle -2.75558e-14 -1.94664e-14 -2.35919e-30
rhumerus -64.6111 10.349 -79.5433
rradius 119.382 0 0
rwrist -19.6371 180 180
rhand -70.5858 -123.818 2.38987
rfingers 7.12502 0 0
rthumb -35.1153 -114.605 4.13729
1840
root 6.7071 13.8984 27.8444 -24.0324 58.9185 -24.9402
lfemur -50.4782 21.6807 1.91788
ltibia 60.4069 0 0
lfoot 0.065296 -4.75421 0.285331
ltoes -15.0554 0 0
rfemur 1.10221 -8.53219 18.4062
rtibia 50.8085 0 0
rfoot -27.0059 -28.3566 -0.0352566
rtoes -25.9523 0 0
lowerback 14.086 3.91924 6.25744
upperback -0.413955 6.69294 4.1581
thorax -8.17436 3.10953 -0.4557
lowerneck -4.20512 8.90265 2.02138
upperneck 7.43395 11.8862 -0.778676
head 3.59131 5.94203 -0.0813012
lclavicle -2.84782e-14 -2.29861e-14 -2.23632e-30
lhumerus 55.0763 13.157 104.426
lradius 14.5741 0 0
lwrist -76.3977 0 0
lhand -33.0802 42.0586 -0.166664
lfingers 7.12502 0 0
lthumb -6.29079 71.8786 -0.158672
rclavicle -2.84782e-14 -2.29861e-14 -2.23632e-30
rhumerus -65.4332 10.5947 -79.9531
rradius 119.916 0 0
rwrist -22.683 180 180
rhand -69.2998 -116.823 2.73769
rfingers 7.12502 0 0
rthumb -34.1938 -110.986 3.8777
